<svg xmlns="http://www.w3.org/2000/svg" viewBox="0 0 3264 4896"><filter id="b"><feGaussianBlur stdDeviation="12" /></filter><path fill="#846d67" d="M0 0h3251v4896H0z"/><g filter="url(#b)" transform="translate(9.6 9.6) scale(19.125)" fill-opacity=".5"><ellipse rx="1" ry="1" transform="matrix(-21.16277 96.55755 -165.08153 -36.18135 61.7 255)"/><ellipse fill="#fae4e0" cx="129" cy="40" rx="157" ry="66"/><path fill="#e38365" d="M149.5 140.9L43.1 272.2l-18.6-15 106.4-131.4z"/><path fill="#fff" d="M19-16l55 60 82-60z"/><ellipse fill="#000007" rx="1" ry="1" transform="matrix(18.21369 -28.16388 51.73181 33.45516 144.6 230)"/><ellipse rx="1" ry="1" transform="matrix(-47.21376 15.70593 -11.79604 -35.4602 6.2 223.8)"/><ellipse fill="#252422" cx="116" cy="103" rx="7" ry="77"/><ellipse fill="#bd9580" rx="1" ry="1" transform="matrix(55.78874 14.37557 -9.24583 35.88124 45.7 90)"/></g></svg>