<svg xmlns="http://www.w3.org/2000/svg" viewBox="0 0 6000 4000"><filter id="b"><feGaussianBlur stdDeviation="12" /></filter><path fill="#40413c" d="M0 0h6000v3984H0z"/><g filter="url(#b)" transform="translate(11.7 11.7) scale(23.4375)" fill-opacity=".5"><ellipse fill="#ab2d18" rx="1" ry="1" transform="matrix(11.1916 13.15008 -42.81468 36.43815 141.6 132.8)"/><ellipse fill="#6c6c64" cx="239" cy="18" rx="175" ry="26"/><ellipse fill="#948f80" rx="1" ry="1" transform="matrix(-19.76574 -11.21552 9.28251 -16.3591 216.9 114.8)"/><ellipse fill="#000d0c" cx="181" cy="147" rx="19" ry="36"/><ellipse fill="#021610" rx="1" ry="1" transform="matrix(-19.76978 -24.15395 67.40552 -55.17078 256 150.9)"/><ellipse fill="#c2744f" rx="1" ry="1" transform="matrix(-23.56755 -29.2428 5.2474 -4.22901 41.7 38.6)"/><path fill="#000f0f" d="M146 72l1-76-28 82z"/><ellipse fill="#0a2721" rx="1" ry="1" transform="rotate(-48.6 102.5 27.3) scale(24.61801 40.40257)"/></g></svg>