<svg xmlns="http://www.w3.org/2000/svg" viewBox="0 0 1709 2560"><filter id="b"><feGaussianBlur stdDeviation="12" /></filter><path fill="#27343a" d="M0 0h1710v2560H0z"/><g filter="url(#b)" transform="matrix(10 0 0 10 5 5)" fill-opacity=".5"><path fill="#8c8684" d="M92 64l71 61.6-63 72.5-71-61.7z"/><path fill="#e6c1c1" d="M107 153l-28-11-19 62z"/><ellipse fill="#000701" rx="1" ry="1" transform="matrix(169.1364 -17.11364 3.39868 33.58957 124.5 235.5)"/><path fill="#000a0c" d="M-16 123l85 12L3-16z"/><ellipse fill="#001f3b" cx="96" rx="81" ry="81"/><path fill="#d19475" d="M146 157l-3-35 43-23z"/><ellipse fill="#3d5c6c" rx="1" ry="1" transform="matrix(2.55347 -37.80475 52.6952 3.55922 88 87)"/><path fill="#d28f48" d="M120.7 227.4l-7.2 3.4-26.2-56.2 7.2-3.4z"/></g></svg>