<svg xmlns="http://www.w3.org/2000/svg" viewBox="0 0 4896 3264"><filter id="c"><feGaussianBlur stdDeviation="55" /></filter><path fill="#5c7681" d="M0 0h4896v3251H0z"/><g filter='url(#c)' fill-opacity='.5'><ellipse fill="#cfffff" fill-opacity=".5" rx="1" ry="1" transform="rotate(131.2 74 460.4) scale(2365.66502 904.78872)"/><ellipse fill="#080305" fill-opacity=".5" rx="1" ry="1" transform="rotate(-96.5 2528.4 64.3) scale(1283.8265 1655.32815)"/><ellipse fill="#f5ffff" fill-opacity=".5" rx="1" ry="1" transform="matrix(1486.50635 -14.06394 6.85065 724.08852 4208.1 392.6)"/><ellipse fill-opacity=".5" rx="1" ry="1" transform="matrix(-509.2431 -238.5469 325.11556 -694.0474 2203 757.8)"/><ellipse fill="#dfc4b8" fill-opacity=".5" rx="1" ry="1" transform="matrix(-435.4199 -858.25952 381.12396 -193.35522 4681.6 2256)"/><ellipse fill="#47a5dd" fill-opacity=".5" rx="1" ry="1" transform="matrix(12.55514 573.75739 -1178.07988 25.77911 605.5 1588)"/><ellipse fill="#d7ffff" fill-opacity=".5" rx="1" ry="1" transform="matrix(-994.42671 67.79321 -40.3327 -591.62126 707.8 523.9)"/><ellipse fill="#005476" fill-opacity=".5" rx="1" ry="1" transform="matrix(-1099.56504 453.208 -255.18733 -619.13086 138.4 2924.4)"/></g></svg>