<svg xmlns="http://www.w3.org/2000/svg" viewBox="0 0 5472 3648"><filter id="b"><feGaussianBlur stdDeviation="12" /></filter><path fill="#5f5341" d="M0 0h5472v3633H0z"/><g filter="url(#b)" transform="translate(10.7 10.7) scale(21.375)" fill-opacity=".5"><ellipse fill="#fff" rx="1" ry="1" transform="matrix(-.6091 8.74204 -33.5087 -2.33473 48.5 144)"/><ellipse fill="#000b14" rx="1" ry="1" transform="rotate(152.2 96.8 100.2) scale(28.4135 67.58086)"/><ellipse fill="#c5956d" rx="1" ry="1" transform="matrix(19.63737 -30.4494 39.37003 25.39044 26.8 100)"/><ellipse fill="#c3945f" cx="151" cy="118" rx="24" ry="74"/><ellipse fill="#09050c" cx="98" cy="120" rx="23" ry="66"/><ellipse fill="#020000" rx="1" ry="1" transform="matrix(36.53394 2.6947 -1.56784 21.25638 144.6 23)"/><ellipse fill="#05779c" rx="1" ry="1" transform="rotate(-163.5 132.3 14.4) scale(31.43879 80.13838)"/><path fill="#fff6ca" d="M77 91.5l50 17.3-2 5.7-50-17.3z"/></g></svg>