<svg xmlns="http://www.w3.org/2000/svg" viewBox="0 0 5760 3840"><filter id="b"><feGaussianBlur stdDeviation="12" /></filter><path fill="#444441" d="M0 0h5760v3825H0z"/><g filter="url(#b)" transform="matrix(22.5 0 0 22.5 11.3 11.3)" fill-opacity=".5"><ellipse fill="#fff" rx="1" ry="1" transform="rotate(-99.5 132.8 -89.6) scale(46.32304 20.95957)"/><ellipse fill="#fcfdfc" rx="1" ry="1" transform="rotate(-31.8 117.8 -36.6) scale(14.64006 58.45729)"/><path fill="#fff" d="M203-15l-90 64 2-60z"/><ellipse fill="#020200" rx="1" ry="1" transform="matrix(-6.00274 45.12298 -252.77313 -33.62655 77.2 145.1)"/><ellipse rx="1" ry="1" transform="matrix(-18.48338 2.6635 -3.81234 -26.4558 150.6 41.2)"/><path fill="#fff" d="M154.9 15.3l-44.3-2.4L174.9-16l6 48.2z"/><ellipse fill="#fff" cx="16" cy="43" rx="4" ry="45"/><ellipse rx="1" ry="1" transform="matrix(2.3415 -87.70995 13.38693 .35738 0 29.8)"/></g></svg>