<svg xmlns="http://www.w3.org/2000/svg" viewBox="0 0 4896 3264"><filter id="b"><feGaussianBlur stdDeviation="12" /></filter><path fill="#5c5252" d="M0 0h4896v3251H0z"/><g filter="url(#b)" transform="translate(9.6 9.6) scale(19.125)" fill-opacity=".5"><ellipse fill="#afc1b8" cx="105" cy="67" rx="48" ry="255"/><ellipse rx="1" ry="1" transform="rotate(-6.2 613.8 -181.6) scale(39.67137 52.15471)"/><path fill="#160000" d="M155.4 166.6l59.2-111.3 98 52.1-59.2 111.3z"/><ellipse fill="#d80000" rx="1" ry="1" transform="rotate(-165.4 27.8 79.8) scale(80.13613 29.69415)"/><ellipse fill="#e0f6fc" rx="1" ry="1" transform="matrix(1.2418 28.93438 -37.56864 1.61236 80.8 120.9)"/><ellipse fill="#002516" rx="1" ry="1" transform="rotate(56.8 72.5 198.1) scale(27.0952 42.98764)"/><ellipse fill="#2d3b34" rx="1" ry="1" transform="matrix(23.6733 3.41154 -6.77378 47.00453 140.2 75)"/><path fill="#effff4" d="M178-16l-22 56-56-56z"/></g></svg>