<svg xmlns="http://www.w3.org/2000/svg" viewBox="0 0 4896 3264"><filter id="b"><feGaussianBlur stdDeviation="12" /></filter><path fill="#343438" d="M0 0h4896v3251H0z"/><g filter="url(#b)" transform="translate(9.6 9.6) scale(19.125)" fill-opacity=".5"><ellipse fill="#97b9e4" cx="114" cy="80" rx="33" ry="40"/><path fill="#fff" d="M180.2 116.8l-8.3 3.4-10.1-25 8.3-3.4z"/><ellipse fill="#110f08" rx="1" ry="1" transform="rotate(-32.6 201.3 -176.2) scale(13.79452 28.08027)"/><path fill="#9eb3d4" d="M115.1 130.5L81.7 70.2l19.2-10.7 33.4 60.3z"/><ellipse fill="#1a1a16" rx="1" ry="1" transform="matrix(-54.5931 23.35801 -77.30677 -180.68385 255 86.8)"/><ellipse fill="#1c1c19" rx="1" ry="1" transform="rotate(172.3 8.2 50) scale(32.36905 154.33902)"/><path fill="#fdf" d="M153 113h9v11h-9z"/><path fill="#7faee1" d="M136.8 92.6l-1-28.7-7.5-18.4L155.6 65z"/></g></svg>