<svg xmlns="http://www.w3.org/2000/svg" viewBox="0 0 6000 4000"><filter id="c"><feGaussianBlur stdDeviation="55" /></filter><path fill="#3d3a34" d="M0 0h6000v3984H0z"/><g filter='url(#c)' fill-opacity='.5'><path fill="#edf8fd" fill-opacity=".5" d="M5278.4 1165.9l-681.7 1230-2070.4-1147.7L3208 18.2z"/><path fill-opacity=".5" d="M1944.1 4873.8L-344 4673.6 1.2 727.8l2288.1 200.1z"/><path fill="#95a2ba" fill-opacity=".5" d="M3004.6 2369l-1712.2 491-148.6-518.1 1712.2-491z"/><ellipse fill-opacity=".5" rx="1" ry="1" transform="matrix(-2510.2425 3594.19658 -706.64486 -493.5317 5722.4 3071.6)"/><ellipse fill="#8d765a" fill-opacity=".5" rx="1" ry="1" transform="matrix(70.12456 355.23788 -1271.58347 251.01275 2755.6 348.7)"/><ellipse fill-opacity=".5" rx="1" ry="1" transform="matrix(-811.09614 565.8285 -230.59157 -330.54526 2199 1218.4)"/><ellipse fill="#12171a" fill-opacity=".5" rx="1" ry="1" transform="matrix(1138.78714 779.74383 -373.66466 545.72347 5509.2 636.4)"/><ellipse fill-opacity=".5" rx="1" ry="1" transform="matrix(-559.46028 734.3966 -3983.2387 -3034.41474 206.5 3505.5)"/></g></svg>