<svg xmlns="http://www.w3.org/2000/svg" viewBox="0 0 3349 2458"><filter id="b"><feGaussianBlur stdDeviation="12" /></filter><path fill="#373732" d="M0 0h3349v2446H0z"/><g filter="url(#b)" transform="translate(6.5 6.5) scale(13.08203)" fill-opacity=".5"><ellipse fill="#fff" rx="1" ry="1" transform="matrix(-4.47569 18.12112 -50.43904 -12.45781 186 119.2)"/><ellipse fill="#f7e7f5" rx="1" ry="1" transform="matrix(-44.34049 -7.65893 3.0459 -17.6339 255 18.9)"/><ellipse fill="#e3b5b9" rx="1" ry="1" transform="matrix(-.26264 9.87545 -72.82674 -1.93686 64.6 141.6)"/><ellipse rx="1" ry="1" transform="matrix(-254.61512 -14.00503 1.7922 -32.58265 166.7 186)"/><ellipse fill="#041304" rx="1" ry="1" transform="matrix(-7.888 63.49412 -101.11771 -12.56206 103 34)"/><ellipse fill="#ddc4cd" rx="1" ry="1" transform="matrix(-5.04502 12.6237 -73.5064 -29.3766 242.7 138.3)"/><ellipse fill="#f5ae96" rx="1" ry="1" transform="matrix(-11.77791 -2.79777 5.81942 -24.49832 130.4 123.3)"/><ellipse fill="#c2b3d2" cx="228" cy="103" rx="49" ry="7"/></g></svg>