<svg xmlns="http://www.w3.org/2000/svg" viewBox="0 0 4752 4752"><filter id="b"><feGaussianBlur stdDeviation="12" /></filter><path fill="#b8aaa3" d="M0 0h4752v4752H0z"/><g filter="url(#b)" transform="translate(9.3 9.3) scale(18.5625)" fill-opacity=".5"><ellipse fill="#2b1910" rx="1" ry="1" transform="rotate(86.6 -51.5 152.9) scale(37.18486 87.29705)"/><ellipse fill="#dfd3ce" rx="1" ry="1" transform="matrix(-35.85316 77.7716 -231.57655 -106.75814 178.5 56)"/><ellipse fill="#2a2017" rx="1" ry="1" transform="matrix(-5.84534 -15.14854 29.13956 -11.24402 90 193.3)"/><ellipse fill="#180a00" cx="48" cy="218" rx="41" ry="6"/><ellipse fill="#392316" rx="1" ry="1" transform="matrix(1.23454 5.61512 -21.67608 4.7657 176.2 215.7)"/><path fill="#ead9d6" d="M151.8 196l5 23.6-20.6 4.3-5-23.5z"/><path fill="#dccdca" d="M35 226l131 45 4-42z"/><path fill="#dbccca" d="M90 212l15 12 15-31z"/></g></svg>