<svg xmlns="http://www.w3.org/2000/svg" viewBox="0 0 6720 4480"><filter id="b"><feGaussianBlur stdDeviation="12" /></filter><path fill="#4f686d" d="M0 0h6720v4462H0z"/><g filter="url(#b)" transform="translate(13.1 13.1) scale(26.25)" fill-opacity=".5"><ellipse fill="#fff" rx="1" ry="1" transform="matrix(132.4972 8.10388 -1.93283 31.60153 193.7 86.3)"/><ellipse fill="#1a0000" cx="81" cy="155" rx="255" ry="37"/><ellipse fill="#005d83" cx="103" cy="21" rx="154" ry="44"/><ellipse cx="113" cy="134" rx="21" ry="43"/><path fill="#ffecdf" d="M259.9 119.5l-119 2-.8-47 119-2z"/><ellipse fill="#64b7ca" rx="1" ry="1" transform="matrix(235.15841 -28.4573 1.93517 15.99137 110.3 61.6)"/><ellipse fill="#d46839" rx="1" ry="1" transform="matrix(11.78395 -18.78642 32.10316 20.137 164.8 128.1)"/><ellipse fill="#003147" rx="1" ry="1" transform="matrix(252.41204 -36.23755 3.69059 25.70671 149.7 0)"/></g></svg>