<svg xmlns="http://www.w3.org/2000/svg" viewBox="0 0 3993 2832"><filter id="b"><feGaussianBlur stdDeviation="12" /></filter><path fill="#3f3933" d="M0 0h3993v2823H0z"/><g filter="url(#b)" transform="translate(7.8 7.8) scale(15.59766)" fill-opacity=".5"><ellipse fill="#c3cdd4" rx="1" ry="1" transform="matrix(11.28277 -36.05072 19.61433 6.13869 61.6 103.9)"/><path fill="#d0dce2" d="M147 36l76-29-153 6z"/><path fill="#eefeff" d="M26.4 32.6L63.5 30l19-4.3-46 31.6z"/><path fill="#b9daf4" d="M23.6 99.2l-39.6.2L8.4 40l8.1 19z"/><ellipse fill="#0b0000" cx="124" cy="136" rx="45" ry="88"/><path fill="#a0a5a2" d="M176.2 64.5l-9.3 55.7 49.2-5.2-2.3-21.8z"/><ellipse fill="#130700" rx="1" ry="1" transform="matrix(-8.7153 -32.46517 74.00393 -19.8664 241.2 160.4)"/><ellipse fill="#fff" cx="184" cy="13" rx="37" ry="4"/></g></svg>