<svg height="128" viewBox="0 0 88 128" width="88" xmlns="http://www.w3.org/2000/svg"><g fill-rule="evenodd"><path d="M43.707 62.439c17.242 0 31.22-13.977 31.22-31.22C74.927 13.978 60.949 0 43.707 0c-17.242 0-31.22 13.977-31.22 31.22 0 17.242 13.978 31.219 31.22 31.219z" fill-rule="nonzero"/><path d="M5.203 62.853c-.955 0-1.734.789-1.734 1.757v10.544h1.734c4.864 0 8.671 3.858 8.671 8.786v3.515c0 4.928-3.807 8.786-8.671 8.786H3.469v17.573c0 .975.779 1.758 1.734 1.758 20.54 0 33.406 7.708 36.42 9.72V68.948c-5.053-2.018-17.614-6.095-36.42-6.095zm76.31 0c-18.807 0-31.367 4.077-36.421 6.095v56.344c3.015-2.012 15.887-9.72 36.42-9.72a1.74 1.74 0 0 0 1.735-1.758V96.241h-1.734c-4.865 0-8.672-3.858-8.672-8.786V83.94c0-4.928 3.807-8.786 8.672-8.786h1.734V64.61c0-.968-.772-1.757-1.734-1.757z"/><path d="M3.469 78.668c-1.91 0-3.469 1.58-3.469 3.515v7.03c0 1.935 1.558 3.514 3.469 3.514h1.734c2.947 0 5.203-2.286 5.203-5.272V83.94c0-2.986-2.256-5.272-5.203-5.272H3.469zm78.044 0c-.366 0-.739.042-1.084.11-2.405.48-4.12 2.547-4.12 5.162v3.515c0 2.986 2.257 5.272 5.204 5.272h1.734c1.91 0 3.468-1.58 3.468-3.515v-7.03c0-1.935-1.558-3.514-3.468-3.514h-1.734z"/></g></svg>