<svg height="50" width="50" viewBox="0 0 50 50" xmlns="http://www.w3.org/2000/svg" fill="#fff"><path d="M21 0c-6.14 0-9.648 3.438-10.75 6.094-2.828.547-5.352 2.426-6.813 5.093-1.863 3.41-1.886 7.676-.187 12.22A15.053 15.053 0 0 1 9.594 22c4.746 0 7.84 2.098 7.969 2.188a.979.979 0 0 1 .25 1.375.985.985 0 0 1-1.375.25C16.41 25.793 13.69 24 9.593 24c-2.664 0-4.864.848-6.344 1.656-1.063 1.809-1.418 4.016-.906 6 .55 2.145 2.035 3.852 4.25 4.875-.848 1.953-.782 3.914.187 5.625 1.215 2.145 3.703 3.59 6.469 3.813C14.719 50 19.078 50 21 50a4.99 4.99 0 0 0 3-.969V.781C23.242.258 22.258 0 21 0zm8 0c-1.258 0-2.242.258-3 .781V49c.82.61 1.852.992 3 1h.031c2.137 0 5.375-1.035 7.063-3.719C33.004 44.742 30 41.656 30 37a1 1 0 1 1 2 0c0 5.102 4.262 7.273 5.875 7.906 2.57-.312 4.453-1.3 5.406-2.843.91-1.473.942-3.313.063-5.5 2.34-1.06 3.902-2.868 4.437-5.126.418-1.757.125-3.656-.718-5.28C45.187 27.968 41.804 30 36 30a1 1 0 1 1 0-2c6.684 0 9.637-2.973 10.719-4.5 1.73-4.574 1.718-8.883-.157-12.313-1.46-2.667-3.984-4.546-6.812-5.093C38.648 3.437 35.14 0 29 0zM19 10a1 1 0 0 1 1 1c0 1.39-1.262 5-7 5a1 1 0 1 1 0-2c4.078 0 5-2.223 5-3a1 1 0 0 1 1-1zm14 2a1 1 0 0 1 1 1c0 1.633 1.71 5 7 5a1 1 0 1 1 0 2c-6.8 0-9-4.715-9-7a1 1 0 0 1 1-1zM11.156 30c4.348.723 6.844 4.016 6.844 9a1 1 0 1 1-2 0c0-2.297-.688-6.254-5.188-7A.996.996 0 0 1 10 30.844c.09-.547.605-.942 1.156-.844z"/></svg>