<?xml version="1.0" encoding="UTF-8"?>
<svg version="1.1" viewBox="0 0 727 100" xmlns="http://www.w3.org/2000/svg" xmlns:xlink="http://www.w3.org/1999/xlink">
  <defs>
    <path d="M85.6757812,1.66806641 C80.7148438,-2.13162821e-14 77.4814453,-2.13162821e-14 65.9580078,-2.13162821e-14 L34.0429687,-2.13162821e-14 C22.5185547,-2.13162821e-14 19.2851562,-2.13162821e-14 14.3232422,1.66806641 C8.45800781,3.81162109 3.81152344,8.45839844 1.66796875,14.3237305 C0,19.2848633 0,22.518457 0,34.0423828 L0,65.9575195 C0,77.4814453 0,80.7149414 1.66796875,85.6761719 C3.81152344,91.5415039 8.45800781,96.1883789 14.3232422,98.3319336 C19.2851562,99.9999023 22.5185547,99.9999023 34.0429687,99.9999023 L65.9580078,99.9999023 C77.4814453,99.9999023 80.7148438,99.9999023 85.6757812,98.3319336 C91.5419922,96.1883789 96.1884766,91.5415039 98.3320312,85.6761719 C100,80.7149414 100,77.4814453 100,65.9575195 L100,34.0423828 C100,22.518457 100,19.2848633 98.3320312,14.3237305 C96.1884766,8.45839844 91.5419922,3.81162109 85.6757812,1.66806641 Z" id="path-1"/>
  </defs>
  <g fill="none" fill-rule="evenodd" id="Brand" stroke="none" stroke-width="1">
    <g id="Artboard" transform="translate(0.000000, -110.000000)">
      <g id="text/brand" transform="translate(0.000000, 110.000000)">
        <g id="Squircle">
          <mask fill="white" id="mask-2">
            <use xlink:href="#path-1"/>
          </mask>
          <use fill="#B3B3B3" fill-rule="evenodd" id="Icon-Areas" xlink:href="#path-1"/>
          <g fill-rule="evenodd" id="pwa/icon" mask="url(#mask-2)">
            <g fill="#3E3E70" id="color/gray-mauve">
              <rect height="100" id="immersive-reading-color" width="100" x="0" y="0"/>
            </g>
            <g id="icon/logoFlat" opacity="0.94752038" transform="translate(16.666667, 16.666667)">
              <rect fill="#FFB500" height="65.2368421" id="slider-right" rx="2.64473684" transform="translate(57.302632, 33.692845) scale(1, -1) translate(-57.302632, -33.692845) " width="5.28947368" x="54.6578947" y="1.07442434"/>
              <rect fill="#FFB500" height="31.7368421" id="slider-middle" rx="2.64473684" transform="translate(33.588158, 33.692845) scale(1, -1) translate(-33.588158, -33.692845) " width="5.28947368" x="30.9434211" y="17.8244243"/>
              <rect fill="#FFB500" height="65.2368421" id="slider-left" rx="2.64473684" width="5.28947368" x="7.22894737" y="0.881578947"/>
              <path d="M18.84375,10.9921875 L26.5825088,27.2906577 C28.3478175,25.44676 30.8338947,24.2985197 33.5881579,24.2985197 C37.6245426,24.2985197 41.0849437,26.7645988 42.5448714,30.2722671 L50.1194095,46.1568614 C51.8935194,44.2018795 54.4547076,42.974218 57.3026316,42.974218 C62.6583403,42.974218 67,47.3158777 67,52.6715864 C67,58.0272951 62.6583403,62.3689548 57.3026316,62.3689548 C53.398454,62.3689548 50.0331467,60.0617773 48.4957612,56.736474 L40.3487247,40.94814 C38.6019979,42.6470028 36.2172607,43.6932566 33.5881579,43.6932566 C29.0915295,43.6932566 25.6484375,40.828125 23.5546875,36.640625 L16.6386127,21.7585333 C14.8914951,23.459898 12.504976,24.5078947 9.87368421,24.5078947 C4.51797552,24.5078947 0.176315789,20.166235 0.176315789,14.8105263 C0.176315789,9.45481762 4.51797552,5.11315789 9.87368421,5.11315789 C13.9161168,5.11315789 17.2734375,7.328125 18.84375,10.9921875 Z" fill="#312A4C" id="knobs-bg"/>
              <path d="M57.3026316,55.3163232 C58.7632794,55.3163232 59.9473684,54.1322342 59.9473684,52.6715864 C59.9473684,51.2109385 58.7632794,50.0268495 57.3026316,50.0268495 C55.8419838,50.0268495 54.6578947,51.2109385 54.6578947,52.6715864 C54.6578947,54.1322342 55.8419838,55.3163232 57.3026316,55.3163232 Z" fill="#FFFFFF" id="knob-right"/>
              <path d="M33.5881579,31.3511513 C32.1275101,31.3511513 30.9434211,32.5352403 30.9434211,33.9958882 C30.9434211,35.456536 32.1275101,36.640625 33.5881579,36.640625 C35.0488057,36.640625 36.2328947,35.456536 36.2328947,33.9958882 C36.2328947,32.5352403 35.0488057,31.3511513 33.5881579,31.3511513 Z" fill="#FFFFFF" id="knob-middle"/>
              <path d="M9.87368421,17.4552632 C11.334332,17.4552632 12.5184211,16.2711741 12.5184211,14.8105263 C12.5184211,13.3498785 11.334332,12.1657895 9.87368421,12.1657895 C8.41303639,12.1657895 7.22894737,13.3498785 7.22894737,14.8105263 C7.22894737,16.2711741 8.41303639,17.4552632 9.87368421,17.4552632 Z" fill="#FFFFFF" id="knob-left"/>
            </g>
          </g>
        </g>
        <g fill="currentColor" fill-rule="evenodd" id="text/noiseblend" stroke-width="1" transform="translate(127.000000, 17.000000)">
          <path d="M599.564647,65.9145878 C589.976505,65.9145878 580.906641,66.4328657 572.095916,65.9145878 C554.992744,64.618893 542.294935,51.4028056 541.776657,35.3361896 C541.258379,17.1964619 552.142215,3.46209661 570.281943,1.38898487 C579.610946,0.0932900283 589.458227,1.1298459 599.564647,1.1298459 C599.564647,22.3792412 599.564647,43.8877756 599.564647,65.9145878 Z M588.421671,12.0136825 C582.202336,12.0136825 576.501278,11.4954046 570.800221,12.2728215 C561.730357,13.3093774 553.956188,21.8609633 552.660493,30.9308272 C551.364799,39.2232741 556.288439,47.5157211 564.580886,52.1802225 C572.095916,56.585585 580.388363,54.2533343 588.421671,54.5124732 C588.421671,40.000691 588.421671,26.2663258 588.421671,12.0136825 Z" id="D"/>
          <path d="M482.433833,65.6554488 C478.546749,65.6554488 475.437081,65.6554488 471.809136,65.6554488 C471.809136,44.1469145 471.809136,22.8975192 471.809136,1.1298459 C478.805888,-0.424987907 485.025223,-0.165848939 490.467141,6.05348628 C498.24131,14.8642112 507.052035,22.8975192 516.899316,32.7447999 C516.899316,21.0835464 516.899316,11.2362656 516.899316,0.870706931 C521.045539,0.870706931 524.155207,0.870706931 527.524014,0.870706931 C527.524014,22.6383802 527.524014,43.8877756 527.524014,65.3963099 C524.155207,65.3963099 521.045539,65.3963099 517.935872,65.3963099 C517.676733,64.618893 517.158455,63.5823371 517.417594,62.8049202 C519.490706,51.6619446 513.789648,44.4060535 506.015479,37.4093014 C498.24131,30.6716882 491.503697,22.8975192 484.247806,15.6416281 C483.729528,15.9007671 483.21125,16.159906 482.692972,16.419045 C482.433833,33.0039389 482.433833,49.0705549 482.433833,65.6554488 Z" id="N"/>
          <path d="M408.060949,65.6554488 C408.060949,61.7683643 408.060949,58.6586967 408.060949,55.0307512 C423.609288,55.0307512 438.898487,55.0307512 454.446825,55.0307512 C454.446825,58.6586967 454.446825,62.0275033 454.446825,65.6554488 C439.157626,65.6554488 423.868427,65.6554488 408.060949,65.6554488 Z M454.705964,1.1298459 C454.705964,4.75779144 454.705964,7.86745906 454.705964,11.4954046 C439.157626,11.4954046 424.127565,11.4954046 408.320088,11.4954046 C408.320088,8.12659802 408.320088,5.01693041 408.320088,1.1298459 C423.609288,1.1298459 438.639348,1.1298459 454.705964,1.1298459 Z M408.320088,28.8577154 C422.054454,28.8577154 435.270541,28.8577154 449.004906,28.8577154 C449.004906,32.226522 449.004906,35.0770507 449.004906,38.4458572 C435.52968,38.4458572 422.054454,38.4458572 408.320088,38.4458572 C408.320088,35.3361896 408.320088,32.226522 408.320088,28.8577154 Z" id="E"/>
          <path d="M351.309516,65.3963099 C351.309516,61.7683643 351.309516,58.3995577 351.309516,54.7716122 C360.638518,54.7716122 369.708382,54.7716122 379.814802,54.7716122 C379.814802,36.3727455 379.814802,18.7512957 379.814802,0.870706931 C383.961025,0.870706931 386.811554,0.870706931 390.180361,0.870706931 C390.180361,22.3792412 390.180361,43.6286366 390.180361,65.3963099 C376.964273,65.3963099 364.007325,65.3963099 351.309516,65.3963099 Z" id="L"/>
          <path d="M288.857024,65.6554488 C288.857024,52.9576394 288.857024,40.7781079 288.857024,27.5620206 C297.926888,27.5620206 307.255891,27.5620206 316.325755,27.5620206 C325.395619,27.5620206 329.282703,25.2297699 329.282703,19.7878516 C329.023564,14.0867943 325.13648,11.7545436 316.066616,11.7545436 C307.255891,11.7545436 298.186027,11.7545436 288.857024,11.7545436 C288.857024,7.86745906 288.857024,4.75779144 288.857024,1.38898487 C301.554834,1.38898487 314.252643,0.0932900283 326.691314,1.64812383 C338.093428,3.20295764 343.535347,16.159906 338.870845,27.0437427 C337.316011,30.6716882 337.57515,33.0039389 339.648262,36.3727455 C347.940709,49.8479718 339.129984,65.6554488 323.322507,65.9145878 C312.956948,66.1737268 302.59139,65.9145878 292.225831,65.9145878 C291.448414,65.9145878 290.411858,65.9145878 288.857024,65.6554488 Z M300,54.7716122 C308.551586,54.7716122 316.584894,55.5490291 324.359063,54.5124732 C327.209592,54.2533343 331.355815,49.8479718 331.355815,47.2565821 C331.355815,44.6651925 327.468731,40.000691 324.618202,39.7415521 C316.584894,38.7049962 308.551586,39.4824131 300,39.4824131 C300,44.4060535 300,49.0705549 300,54.7716122 Z" id="B"/>
          <path d="M225.886255,65.6554488 C225.886255,62.2866423 225.886255,58.9178357 225.886255,55.0307512 C241.175454,55.0307512 256.464653,55.0307512 272.012992,55.0307512 C272.012992,58.6586967 272.012992,61.7683643 272.012992,65.6554488 C256.723792,65.6554488 241.434593,65.6554488 225.886255,65.6554488 Z M272.012992,11.4954046 C256.464653,11.4954046 241.693732,11.4954046 226.145394,11.4954046 C226.145394,8.12659802 226.145394,4.75779144 226.145394,1.1298459 C241.434593,1.1298459 256.464653,1.1298459 272.012992,1.1298459 C272.012992,4.49865248 272.012992,7.60832009 272.012992,11.4954046 Z M225.886255,38.4458572 C225.886255,35.3361896 225.886255,32.226522 225.886255,28.8577154 C239.620621,28.8577154 252.836708,28.8577154 266.830212,28.8577154 C266.830212,31.967383 266.830212,34.8179117 266.830212,38.4458572 C253.354986,38.4458572 239.87976,38.4458572 225.886255,38.4458572 Z" id="E"/>
          <path d="M163.692903,66.1737268 C163.692903,62.0275033 163.692903,58.6586967 163.692903,54.7716122 C171.98535,54.7716122 180.018658,54.7716122 188.051966,54.7716122 C194.271301,54.7716122 197.899247,51.6619446 197.899247,46.9974432 C197.899247,42.3329417 194.012162,39.2232741 188.051966,38.9641352 C185.201437,38.9641352 182.350909,38.9641352 179.759519,38.9641352 C169.39396,38.7049962 161.619791,30.9308272 161.360652,21.0835464 C160.842374,10.4588487 167.839127,1.64812383 178.204685,0.870706931 C187.274549,0.0932900283 196.603552,0.611567964 206.191694,0.611567964 C206.191694,4.23951351 206.191694,7.34918112 206.191694,11.7545436 C199.71322,11.7545436 193.234745,11.7545436 186.497132,11.7545436 C184.164881,11.7545436 181.573492,11.4954046 179.50038,12.0136825 C174.835879,12.7910994 171.98535,15.6416281 172.503628,20.5652685 C173.021906,24.9706309 175.872435,27.5620206 180.277797,27.5620206 C183.387465,27.5620206 186.756271,27.5620206 189.865939,27.5620206 C201.008914,28.0802985 208.783083,36.1136065 208.783083,46.9974432 C208.783083,57.8812798 200.749775,65.9145878 189.347661,65.9145878 C181.314353,66.1737268 172.762767,66.1737268 163.692903,66.1737268 Z" id="S"/>
          <path d="M134.669339,20.0469905 C144.775758,18.4921567 145.034897,18.4921567 145.034897,28.0802985 C145.034897,40.518969 145.034897,52.9576394 145.034897,65.9145878 C141.147813,65.9145878 138.297284,65.9145878 134.669339,65.9145878 C134.669339,50.6253887 134.669339,35.5953286 134.669339,20.0469905 Z M144.25748,11.4954046 C140.888674,11.4954046 138.038145,11.4954046 134.4102,11.4954046 C134.4102,8.12659802 134.4102,4.75779144 134.4102,1.38898487 C145.034897,-0.684126874 145.812314,0.0932900283 144.25748,11.4954046 Z" id="I"/>
          <path d="M94.7619377,9.9405708 C108.237164,9.68143183 118.861862,19.7878516 119.121001,32.7447999 C119.38014,45.9608873 108.496303,56.8447239 95.0210766,56.8447239 C82.0641283,56.8447239 71.4394306,46.7383042 71.4394306,33.7813558 C71.4394306,20.0469905 81.0275724,10.1997098 94.7619377,9.9405708 Z M107.978025,33.0039389 C107.978025,26.5254647 101.499551,20.5652685 94.7619377,20.8244074 C88.2834635,21.0835464 82.0641283,27.0437427 82.0641283,33.0039389 C82.0641283,39.4824131 88.2834635,45.4426094 95.0210766,45.4426094 C102.276968,45.4426094 108.237164,39.7415521 107.978025,33.0039389 Z" id="O"/>
          <path d="M45.5255338,0.870706931 C49.6717573,0.870706931 52.263147,0.870706931 55.6319536,0.870706931 C55.6319536,22.3792412 55.6319536,43.8877756 55.6319536,65.6554488 C52.522286,65.6554488 49.6717573,65.6554488 46.3029507,65.6554488 C46.0438118,64.618893 45.5255338,63.3231981 45.7846728,62.2866423 C47.5986456,52.1802225 42.6750052,45.4426094 35.6782531,38.9641352 C27.6449451,31.7082441 20.129915,23.6749361 12.6148849,15.9007671 C12.096607,16.159906 11.5783291,16.419045 11.0600511,16.678184 C11.0600511,33.0039389 11.0600511,49.0705549 11.0600511,65.6554488 C7.17296662,65.6554488 4.06329901,65.6554488 0.694492433,65.6554488 C0.694492433,44.1469145 0.694492433,22.6383802 0.694492433,1.38898487 C8.72780043,-0.684126874 14.6879967,0.870706931 19.870776,7.09004215 C26.0901113,14.3459332 33.0868634,20.5652685 39.8244765,27.3028816 C41.1201714,28.5985765 42.6750052,29.8942713 45.7846728,32.485661 C45.5255338,21.0835464 45.5255338,11.2362656 45.5255338,0.870706931 Z" id="N"/>
        </g>
      </g>
    </g>
  </g>
</svg>