<svg height="50" viewBox="0 0 30 30" width="50" xmlns="http://www.w3.org/2000/svg"><path d="M14 7a2 2 0 0 0-2 2v4H3a2 2 0 0 0-2 2v4a1 1 0 1 0 0 2h3.05c.248 1.685 1.7 3 3.45 3 1.75 0 3.202-1.315 3.45-3H20.05c.248 1.685 1.7 3 3.45 3 1.75 0 3.202-1.315 3.45-3H29a1 1 0 1 0 0-2v-3a2 2 0 0 0-2-2h-2.34l-2.223-5.182A3 3 0 0 0 20 7.023V7h-6zm4 2h1.682c.402 0 .76.236.918.605L22.482 14H17v-4a1 1 0 0 1 1-1zM7.5 19c.84 0 1.5.66 1.5 1.5S8.34 22 7.5 22 6 21.34 6 20.5 6.66 19 7.5 19zm16 0c.84 0 1.5.66 1.5 1.5s-.66 1.5-1.5 1.5-1.5-.66-1.5-1.5.66-1.5 1.5-1.5z"/></svg>