<?xml version="1.0" encoding="UTF-8"?>
<svg height="47px" version="1.1" viewBox="0 0 32 66" width="32px" xmlns="http://www.w3.org/2000/svg" xmlns:xlink="http://www.w3.org/1999/xlink">
    <g fill="none" fill-rule="evenodd" id="Page-1" stroke="none" stroke-width="1">
        <g fill-rule="nonzero" id="coffee" transform="translate(-1.000000, 3.000000)">
            <g id="cup" transform="translate(2.000000, 15.000000)">
                <g fill="#FF9100" id="cup-fill-2" transform="translate(3.000000, 0.000000)">
                    <polygon id="path0_fill" points="11.9482 0.8722083 0.362 0.802 6.05166 36.9478 7.29303 36.9478 18.6723 36.9478 19.9137 36.9478 25.6034 0.802"/>
                </g>
                <g fill="#FFDD00" id="cup-fill" transform="translate(3.000000, 0.000000)">
                    <polygon id="path1_fill" points="11.9482 0.8722083 0.362 0.802 6.05166 36.9478 7.29303 36.9478 15.7758 36.9478 17.0172 36.9478 22.7068 0.802"/>
                </g>
                <g fill="#000000" id="cup-stroke">
                    <path d="M14.9482,0.8722083 L14.9442,1.648101 L14.9522,1.64806 L14.9482,0.8722083 Z M1.293,0.802 L1.29698906,0.026148 L0.384721,0.021458 L0.526575,0.922642 L1.293,0.802 Z M6.98266,36.9478 L6.21623,37.0685 L6.31937,37.7237 L6.98266,37.7237 L6.98266,36.9478 Z M22.9137,36.9478 L22.9137,37.7237 L23.577,37.7237 L23.6801,37.0685 L22.9137,36.9478 Z M28.6033,0.802 L29.3698,0.922642 L29.5116,0.021458 L28.5994,0.026148 L28.6033,0.802 Z M14.9522,0.096356 L1.29698906,0.026148 L1.28901094,1.577852 L14.9442,1.64806 L14.9522,0.096356 Z M0.526575,0.922642 L6.21623,37.0685 L7.74908,36.8272 L2.059425,0.681358 L0.526575,0.922642 Z M6.98266,37.7237 L8.22403,37.7237 L8.22403,36.172 L6.98266,36.172 L6.98266,37.7237 Z M8.22403,37.7237 L21.6723,37.7237 L21.6723,36.172 L8.22403,36.172 L8.22403,37.7237 Z M21.6723,37.7237 L22.9137,37.7237 L22.9137,36.172 L21.6723,36.172 L21.6723,37.7237 Z M23.6801,37.0685 L29.3698,0.922642 L27.8369,0.681358 L22.1473,36.8272 L23.6801,37.0685 Z M28.5994,0.026148 L14.9442,0.096356 L14.9522,1.64806 L28.6073,1.577852 L28.5994,0.026148 Z" id="path6_stroke"/>
                </g>
            </g>
            <g id="sleeve" transform="translate(1.000000, 25.000000)">
                <g fill="#FFFFFF" id="sleeve-fill" transform="translate(1.000000, 1.000000)">
                    <polygon id="path7_fill" points="29.0174 0.01 15.3869 0.01 14.4064 0.01 0.776 0.01 3.32559 14.385 14.8967 14.2597 26.4678 14.385"/>
                </g>
                <g fill="#000000" id="sleeve-stroke">
                    <path d="M30.0174,1.01 L30.7813,1.145494 L30.943,0.234138 L30.0174,0.234138 L30.0174,1.01 Z M1.776,1.01 L1.776,0.234138 L0.85042,0.234138 L1.012061,1.145494 L1.776,1.01 Z M4.32559,15.385 L3.56165,15.5205 L3.67648,16.1679 L4.33399,16.1608 L4.32559,15.385 Z M15.8967,15.2597 L15.9051,14.4839 L15.8967,14.4838 L15.8883,14.4839 L15.8967,15.2597 Z M27.4678,15.385 L27.4594,16.1608 L28.1169,16.1679 L28.2317,15.5205 L27.4678,15.385 Z M30.0174,0.234138 L16.3869,0.234138 L16.3869,1.785862 L30.0174,1.785862 L30.0174,0.234138 Z M16.3869,0.234138 L15.4064,0.234138 L15.4064,1.785862 L16.3869,1.785862 L16.3869,0.234138 Z M15.4064,0.234138 L1.776,0.234138 L1.776,1.785862 L15.4064,1.785862 L15.4064,0.234138 Z M1.012061,1.145494 L3.56165,15.5205 L5.08953,15.2495 L2.539939,0.874506 L1.012061,1.145494 Z M4.33399,16.1608 L15.9051,16.0355 L15.8883,14.4839 L4.31718,14.6092 L4.33399,16.1608 Z M15.8883,16.0355 L27.4594,16.1608 L27.4762,14.6092 L15.9051,14.4839 L15.8883,16.0355 Z M28.2317,15.5205 L30.7813,1.145494 L29.2534,0.874506 L26.7039,15.2495 L28.2317,15.5205 Z" id="path8_stroke"/>
                </g>
            </g>
            <g id="lid" transform="rotate(-1.000000) translate(1.000000, 6.000000)">
                <g id="bottom-lid" transform="translate(0.000000, 5.000000)">
                    <g fill="#FFFFFF" id="bottom-lid-fill" transform="translate(1.000000, 1.000000)">
                        <polygon id="path2_fill" points="0.052 3.80233 29.9486 3.80233 29.9486 0.469 0.052 0.469"/>
                    </g>
                    <g fill="#000000" id="bottom-lid-stroke">
                        <path d="M1.052,4.80233 L0.276138,4.80233 L0.276138,5.5782 L1.052,5.5782 L1.052,4.80233 Z M30.9486,4.80233 L30.9486,5.5782 L31.7244,5.5782 L31.7244,4.80233 L30.9486,4.80233 Z M30.9486,1.469 L31.7244,1.469 L31.7244,0.693138 L30.9486,0.693138 L30.9486,1.469 Z M1.052,1.469 L1.052,0.693138 L0.276138,0.693138 L0.276138,1.469 L1.052,1.469 Z M1.052,5.5782 L30.9486,5.5782 L30.9486,4.02647 L1.052,4.02647 L1.052,5.5782 Z M31.7244,4.80233 L31.7244,1.469 L30.1727,1.469 L30.1727,4.80233 L31.7244,4.80233 Z M30.9486,0.693138 L1.052,0.693138 L1.052,2.244862 L30.9486,2.244862 L30.9486,0.693138 Z M0.276138,1.469 L0.276138,4.80233 L1.827862,4.80233 L1.827862,1.469 L0.276138,1.469 Z" id="path3_stroke"/>
                    </g>
                </g>
                <g id="top-lid" transform="translate(3.000000, -0.000000)">
                    <g fill="#FFFFFF" id="top-lid-fill" transform="translate(1.000000, 1.000000)">
                        <polygon id="path4_fill" points="20.6897 0 13.5517 0 9.31034 0 2.17241 0 0 5 9.31034 5 13.5517 5 22.8621 5"/>
                    </g>
                    <g fill="#050505" id="top-lid-stroke">
                        <path d="M22.1557,1.052 L22.8673,0.742823 L22.6645,0.276138 L22.1557,0.276138 L22.1557,1.052 Z M3.63841,1.052 L3.63841,0.276138 L3.12958,0.276138 L2.92682,0.742823 L3.63841,1.052 Z M1.466,6.052 L0.754402,5.74282 L0.28297,6.82786 L1.466,6.82786 L1.466,6.052 Z M24.3281,6.052 L24.3281,6.82786 L25.5111,6.82786 L25.0397,5.74282 L24.3281,6.052 Z M22.1557,0.276138 L15.0177,0.276138 L15.0177,1.827862 L22.1557,1.827862 L22.1557,0.276138 Z M15.0177,0.276138 L10.77634,0.276138 L10.77634,1.827862 L15.0177,1.827862 L15.0177,0.276138 Z M10.77634,0.276138 L3.63841,0.276138 L3.63841,1.827862 L10.77634,1.827862 L10.77634,0.276138 Z M2.92682,0.742823 L0.754402,5.74282 L2.177598,6.36118 L4.35001,1.361177 L2.92682,0.742823 Z M1.466,6.82786 L10.77634,6.82786 L10.77634,5.27614 L1.466,5.27614 L1.466,6.82786 Z M10.77634,6.82786 L15.0177,6.82786 L15.0177,5.27614 L10.77634,5.27614 L10.77634,6.82786 Z M15.0177,6.82786 L24.3281,6.82786 L24.3281,5.27614 L15.0177,5.27614 L15.0177,6.82786 Z M25.0397,5.74282 L22.8673,0.742823 L21.4441,1.361177 L23.6165,6.36118 L25.0397,5.74282 Z" id="path5_stroke"/>
                    </g>
                </g>
            </g>
        </g>
    </g>
</svg>