<svg height="50" viewBox="0 0 30 30" width="50" xmlns="http://www.w3.org/2000/svg" fill="#fff"><path d="M8 3a2 2 0 0 0-2 2v3s-4 1-4 5h4a2 2 0 0 0 2 2 2 2 0 0 0 2-2h4c0-4-4-5-4-5V5a2 2 0 0 0-2-2zm12 1a2 2 0 0 0-1.73 1H12v2h6.271A2 2 0 0 0 20 8a2 2 0 0 0 .068-.002l3.166 5.063A2 2 0 0 0 23 14a2 2 0 0 0 .18.82L18 20h4l2.686-4.027A2 2 0 0 0 25 16a2 2 0 0 0 2-2 2 2 0 0 0-2-2 2 2 0 0 0-.07.002l-3.164-5.063A2 2 0 0 0 22 6a2 2 0 0 0-2-2zm-5.62 18a4.019 4.019 0 0 0-1.24 2H13a1 1 0 1 0 0 2h12a1 1 0 1 0 0-2h-.14a4.019 4.019 0 0 0-1.24-2h-9.24z" font-family="sans-serif" font-weight="400" overflow="visible" style="line-height:normal;text-indent:0;text-align:start;text-decoration-line:none;text-decoration-style:solid;text-decoration-color:#000;text-transform:none;block-progression:tb;isolation:auto;mix-blend-mode:normal" white-space="normal"/></svg>