<svg height="50" width="50" viewBox="0 0 50 50" xmlns="http://www.w3.org/2000/svg"><path d="M1 10v10c0 3.348 1.43 4.516 2.375 5.281.527.426.625.524.625.719v10c0 3.512-.344 6 2 6 2.477 0 2-3.188 2-6V26c0-.152.012-.223.563-.625.964-.71 2.437-1.781 2.437-5.219V10H9v9a1 1 0 1 1-2 0v-9H5v9a1 1 0 1 1-2 0v-9zm42.938 0a.97.97 0 0 0-.47.156A.993.993 0 0 0 43 11v24.156C43 38.613 42.54 42 45 42c2.152 0 2-3.313 2-7v-7c0-.887.367-1.77.781-2.781.574-1.41 1.219-3 1.219-5.219 0-1.2.727-7.313-4.563-9.906a1.012 1.012 0 0 0-.5-.094zM26.5 11C18.504 11 12 17.504 12 25.5S18.504 40 26.5 40 41 33.496 41 25.5 34.496 11 26.5 11zm-.563 5.031c.551-.023 1.032.387 1.063.938.031.55-.387 1-.938 1.031-3.957.227-7.062 3.527-7.062 7.5 0 4.137 3.363 7.5 7.5 7.5 3.973 0 7.273-3.105 7.5-7.063A.979.979 0 0 1 35.031 25c.551.031.969.512.938 1.063C35.684 31.078 31.53 35 26.5 35c-5.238 0-9.5-4.262-9.5-9.5a9.481 9.481 0 0 1 8.938-9.469z"/></svg>