<svg height="48" viewBox="0 0 252 252" width="48" xmlns="http://www.w3.org/2000/svg"><g font-family="none" font-size="none" font-weight="none" stroke-miterlimit="10" style="mix-blend-mode:normal" text-anchor="none"><path d="M0 252V0h252v252z" fill="none"/><path d="M188.651 127.066c6.768-7.895 10.849-18.026 10.849-29.141 0-25.102-20.897-45.425-46.696-45.425-18.97 0-35.253 10.418-42.554 26.25-7.321-15.832-23.584-26.25-42.554-26.25C41.897 52.5 21 72.823 21 97.925c0 11.71 4.594 22.353 12.059 30.413l-.041.02.307.267c39.17 44.481 76.925 70.875 76.925 70.875s39.478-26.065 78.258-72.31l.143-.103z"/><path d="M181.576 135.249c-6.952.267-15.504-2.502-27.234-10.008.02-11.69-6.85-22.887-18.54-28.013-15.872-6.973-34.473-.103-41.733 15.298-5.393 11.505-1.292 21.985-1.292 21.985l.123.225c8.388 27.973 19.565 49.834 24.856 59.432 12.182-9.003 37.57-29.244 63.82-58.919z" fill="#00000009"/><path d="M213.179 181.043c6.419-3.015 11.833-8.142 15.011-14.97 7.199-15.443.123-33.593-15.75-40.586-11.689-5.127-24.855-2.748-33.878 5.004.04-11.71-6.85-22.887-18.519-28.034-15.894-6.952-34.494-.082-41.733 15.32-5.415 11.484-1.292 21.963-1.292 21.963l.102.246c11.382 37.96 27.932 64.764 27.932 64.764s30.905-5.722 68.024-23.645z"/></g></svg>