<svg height="50" width="50" xmlns="http://www.w3.org/2000/svg"><path d="M11 9c-.55 0-1 .45-1 1v16h2V10c0-.55-.45-1-1-1zm-4 3c-.55 0-1 .45-1 1v13h2V13c0-.55-.45-1-1-1zm8 0c-.55 0-1 .45-1 1v13h2V13c0-.55-.45-1-1-1zM3 17c-.55 0-1 .45-1 1v8h2v-8c0-.55-.45-1-1-1zm16 0c-.55 0-1 .45-1 1v8h2v-8c0-.55-.45-1-1-1zm4 5c-.55 0-1 .45-1 1v3h2v-3c0-.55-.45-1-1-1zm3 5v3c0 .55.45 1 1 1s1-.45 1-1v-3zm4 0v8c0 .55.45 1 1 1s1-.45 1-1v-8zm4 0v14c0 .55.45 1 1 1s1-.45 1-1V27zm4 0v16c0 .55.45 1 1 1s1-.45 1-1V27zm4 0v14c0 .55.45 1 1 1s1-.45 1-1V27zm4 0v8c0 .55.45 1 1 1s1-.45 1-1v-8z"/></svg>