<svg style="enable-background:new 0 0 48 48;;fill:#000000;" viewBox="0 0 48 48" x="0px" xmlns="http://www.w3.org/2000/svg" y="0px">
    <path d="M43.251,17.375c-1.49-2.64-3.291-5.238-5.181-6.938c1.82-0.29,4.47-0.507,6.81-0.187  C44.88,10.25,45.001,14.75,43.251,17.375z" style="fill:#0D47A1;"/>
    <path d="M5,6.88c0,0,27-11.036,38.799,10.098c0,0,5.326-0.442-0.948,12.866  c-4.563,9.68-16.568,9.019-16.568,9.019S14.75,37.354,8.125,44c0,0-0.625-10.032,6.875-15.049c0,0-2.875-3.888-14-1.003  c0,0,5-11.036,14-12.039C15,15.909,12,7.883,5,6.88z" style="fill:#2559B5;"/>
    <path d="M40.072,33.25c-2.489,1.29-9.406,0.82-11.805-0.66C23.679,29.78,23.629,16,30.006,16  c2.249,0,5.248,1.78,5.747,6.5c0.12,1.12,0.15,5.73,1.319,6.01c0.24,0.06,0.58-0.4,1-1.14c0.15,0.89,0.49,1.49,0.96,1.56  c0.78,0.13,1.519-1.2,1.769-3.18c0.17-1.33,0.09-2.5-0.22-3.17c0.83-1.47,1.669-2.63,2.379-2.63  C44.92,19.95,44.19,31.13,40.072,33.25z" style="fill:#FFFFFF;"/>
    <path d="M28,11.44c0,0-0.71,0.08-1.82,0.47c-0.08,0.03-0.16,0.06-0.24,0.09c-1.39,0.51-3.31,1.49-5.27,3.28  c-0.18,0.17-0.37,0.35-0.55,0.53v0.01c-0.37,0.36-0.75,0.75-1.1,1.18c0,0-2.02-4-0.03-10C18.99,7,24.61,7,28,11.44z" style="fill:#0D47A1;"/>
    <g>
        <path d="M22.69,29.401C18.644,31.521,22.003,40,32.032,40s13.144-8.677,9.494-9.344   C37.937,30,37.027,32,34.038,32C30.956,32,26.231,27.545,22.69,29.401z" style="fill:#FFBCA7;"/>
        <path d="M25.94,12c-1.39,0.51-3.31,1.49-5.27,3.28c-0.42-1.08-0.99-3.34-0.13-6.28C20.54,9,23.88,9,25.94,12   z" style="fill:#FFBCA7;"/>
    </g>
    <g>
        <path d="M30.853,24.781c-0.254,1.98-0.989,3.304-1.775,3.179c-0.786-0.126-1.209-1.708-0.955-3.688s1.104-3.359,1.889-3.234   C30.798,21.164,31.106,22.801,30.853,24.781z"/>
        <path d="M40.8,25.75c-0.25,1.98-0.99,3.31-1.77,3.18c-0.47-0.07-0.81-0.67-0.96-1.56c0.21-0.37,0.44-0.81,0.69-1.29   c0.04,0.48,0.19,0.81,0.42,0.85c0.34,0.05,0.65-0.51,0.75-1.35c0.09-0.66,0.02-1.24-0.17-1.47c0.27-0.52,0.54-1.04,0.82-1.53   C40.89,23.25,40.97,24.42,40.8,25.75z"/>
        <path d="M44.979,30.973c0.197,0.89-0.966,2.088-2.598,2.676c-1.632,0.588-3.114,0.343-3.311-0.547   c-0.197-0.89,0.966-2.088,2.598-2.676C43.3,29.838,44.782,30.083,44.979,30.973z"/>
    </g>
    <g>
        <path d="M29.935,24.585c-0.107,0.836-0.418,1.396-0.75,1.343s-0.511-0.722-0.404-1.558   s0.466-1.419,0.798-1.366C29.911,23.056,30.042,23.748,29.935,24.585z" style="fill:#FFFFFF;"/>
        <path d="M43.242,31.341c0.078,0.349-0.358,0.814-0.975,1.037c-0.617,0.224-1.18,0.121-1.258-0.228   c-0.078-0.349,0.358-0.814,0.975-1.037C42.6,30.889,43.163,30.991,43.242,31.341z" style="fill:#FFFFFF;"/>
        <path d="M39.93,25.58c-0.1,0.84-0.41,1.4-0.75,1.35c-0.23-0.04-0.38-0.37-0.42-0.85c0-0.01,0-0.01,0-0.01   c0.32-0.61,0.65-1.29,1-1.96C39.95,24.34,40.02,24.92,39.93,25.58z" style="fill:#FFFFFF;"/>
    </g>
    <path d="M30,36  c-2.081,0-3.916-1.19-5-3" style="fill:none;stroke:#000000;stroke-width:2;stroke-linecap:round;stroke-miterlimit:10;"/>
</svg>