<svg height="50" width="50" xmlns="http://www.w3.org/2000/svg"><path d="M24.688 0c-2.293 0-4.31.867-5.97 2.563C15.09 6.261 13.896 13.27 14 18.593c.086 4.395 1.832 9.505 1.906 9.72.094.265.305.453.563.562a.917.917 0 0 0 .375.094c.14 0 .304-.035.437-.094 1.836-.836 4.895-1.598 6.969-1.75 2.129-.148 6.738.805 6.781.813.469.097.938-.157 1.125-.594.098-.227 2.352-5.582 2.782-11.313.25-3.343-.57-9.652-3.938-13.281C29.297.914 27.172 0 24.687 0zM32.5 35.281a1.03 1.03 0 0 0-.406.032l-.375.093c-.89.25-2.953.844-5.844 1.094-.941.082-1.977.125-3.063.125-2.558 0-4.605-.215-4.625-.219a.984.984 0 0 0-.78.219c-.212.188-.34.465-.345.75-.023 3.066.516 7.305 3.22 10.031C21.995 49.133 24.308 50 27.186 50c1.915 0 3.672-.89 4.907-2.5 2.039-2.66 2.468-6.828 1.218-11.469-.109-.398-.43-.695-.812-.75z"/></svg>