<svg xmlns="http://www.w3.org/2000/svg" viewBox="0 0 3960 2640"><filter id="b"><feGaussianBlur stdDeviation="12" /></filter><path fill="#7f8780" d="M0 0h3960v2629H0z"/><g filter="url(#b)" transform="translate(7.7 7.7) scale(15.46875)" fill-opacity=".5"><ellipse fill="#b30d00" cx="131" cy="76" rx="62" ry="42"/><ellipse fill="#03a4c6" rx="1" ry="1" transform="rotate(176.5 -.9 27.8) scale(49.91635 91.8763)"/><ellipse fill="#028196" cx="247" cy="67" rx="32" ry="253"/><ellipse fill="#dad8e4" rx="1" ry="1" transform="matrix(-25.96696 -43.92538 26.45408 -15.63862 180.6 10.3)"/><ellipse fill="#d8d7df" rx="1" ry="1" transform="matrix(-10.46394 -31.09298 33.96554 -11.43067 82 19.4)"/><ellipse fill="#f0e7db" rx="1" ry="1" transform="matrix(2.91506 55.1681 -12.79298 .67598 60.2 98.4)"/><ellipse fill="#ede5e3" rx="1" ry="1" transform="matrix(-6.43767 51.6847 -14.33392 -1.78538 200.6 111.6)"/><ellipse fill="#425606" rx="1" ry="1" transform="matrix(-.09699 7.93835 -228.34024 -2.78984 126 160.4)"/></g></svg>