<svg xmlns="http://www.w3.org/2000/svg" viewBox="0 0 6000 4000"><filter id="b"><feGaussianBlur stdDeviation="12" /></filter><path fill="#76715d" d="M0 0h6000v3984H0z"/><g filter="url(#b)" transform="translate(11.7 11.7) scale(23.4375)" fill-opacity=".5"><ellipse fill="#ffe79c" rx="1" ry="1" transform="rotate(46.4 30 200.7) scale(47.42935 50.9257)"/><ellipse fill="#171a23" rx="1" ry="1" transform="matrix(42.74186 -3.21378 13.67624 181.88817 70.5 122.9)"/><ellipse fill="#bbc6b2" rx="1" ry="1" transform="matrix(67.51203 5.31331 -2.1356 27.1353 186 132)"/><ellipse fill="#0c201b" rx="1" ry="1" transform="matrix(30.5532 7.61777 -16.6666 66.84609 254.2 20.7)"/><ellipse fill="#d2dde2" rx="1" ry="1" transform="rotate(-74.3 118.7 -74.5) scale(14.62248 57.57645)"/><ellipse fill="#eb9930" cx="155" cy="12" rx="45" ry="29"/><path fill="#f5e5b1" d="M122 115l5-52 18 54z"/><path fill="#dcb07b" d="M25 84l1-78-42 88z"/></g></svg>