<svg xmlns="http://www.w3.org/2000/svg" viewBox="0 0 2832 4240"><filter id="b"><feGaussianBlur stdDeviation="12" /></filter><path fill="#8f6d61" d="M0 0h2832v4240H0z"/><g filter="url(#b)" transform="translate(8.3 8.3) scale(16.5625)" fill-opacity=".5"><ellipse fill="#ffd6a2" rx="1" ry="1" transform="matrix(20.8937 89.34586 -40.8278 9.54766 145.5 154)"/><ellipse fill="#183342" cx="40" cy="41" rx="80" ry="80"/><ellipse fill="#ffffe5" cx="19" cy="174" rx="6" ry="81"/><ellipse fill="#140c25" rx="1" ry="1" transform="matrix(-21.40604 3.51086 -9.60356 -58.55378 50.7 238.8)"/><path fill="#ffc386" d="M51 127.2l-1-56 25-.4 1 56z"/><path fill="#fb946d" d="M63 128l103-24-88 130z"/><ellipse fill="#102543" rx="1" ry="1" transform="matrix(20.3312 -1.89847 6.02141 64.48476 170 41.6)"/><ellipse fill="#c83223" rx="1" ry="1" transform="matrix(75.7606 44.18272 -6.04364 10.3631 138.7 178.5)"/></g></svg>