<svg xmlns="http://www.w3.org/2000/svg" viewBox="0 0 5472 3648"><filter id="b"><feGaussianBlur stdDeviation="12" /></filter><path fill="#093045" d="M0 0h5472v3633H0z"/><g filter="url(#b)" transform="translate(10.7 10.7) scale(21.375)" fill-opacity=".5"><ellipse fill="#09487e" cx="113" cy="83" rx="63" ry="63"/><ellipse fill="#aa8674" rx="1" ry="1" transform="matrix(-11.7191 2.61528 -3.65221 -16.36562 65.5 115.1)"/><path fill="#8a7d8f" d="M180.5 156l-10.3 18-15.6-54.7 17.9 15.8z"/><ellipse fill="#021919" rx="1" ry="1" transform="matrix(-35.82866 -7.09427 33.56114 -169.49615 228.4 94)"/><path fill="#00181b" d="M134 55L-16 79 7-16z"/><ellipse fill="#3184e3" cx="116" cy="118" rx="7" ry="28"/><ellipse fill="#3a3722" rx="1" ry="1" transform="matrix(-6.12874 24.23421 -35.89698 -9.07822 71.6 144.7)"/><ellipse fill="#047" rx="1" ry="1" transform="rotate(105.6 64.1 77.2) scale(79.20247 27.42486)"/></g></svg>