<svg xmlns="http://www.w3.org/2000/svg" viewBox="0 0 4912 3264"><filter id="b"><feGaussianBlur stdDeviation="12" /></filter><path fill="#897762" d="M0 0h4912v3261H0z"/><g filter="url(#b)" transform="translate(9.6 9.6) scale(19.1875)" fill-opacity=".5"><ellipse fill="#180000" rx="1" ry="1" transform="matrix(-40.88619 -206.49033 68.2679 -13.5174 206 54.8)"/><ellipse fill="#e1d6c5" cx="36" cy="87" rx="108" ry="108"/><ellipse fill="#fff6e9" rx="1" ry="1" transform="matrix(-17.12513 -100.79743 10.44972 -1.77537 91.6 72.7)"/><path fill="#e1d6ae" d="M117.3 100.3l29.4-5.7 20 103-29.4 5.8z"/><ellipse fill="#121200" cx="189" cy="125" rx="39" ry="39"/><ellipse fill="#66736d" rx="1" ry="1" transform="matrix(-19.02307 -121.4788 11.48048 -1.7978 63.7 70.5)"/><ellipse fill="#d4e7d1" rx="1" ry="1" transform="matrix(-9.69057 -90.6769 11.88307 -1.26993 111 15.2)"/><path fill="#49260a" d="M14.2 89l-9-68.6 22 81-6.9 31.3z"/></g></svg>