<svg xmlns="http://www.w3.org/2000/svg" viewBox="0 0 5862 3909"><filter id="b"><feGaussianBlur stdDeviation="12" /></filter><path fill="#522607" d="M0 0h5862v3892H0z"/><g filter="url(#b)" transform="translate(11.4 11.4) scale(22.89844)" fill-opacity=".5"><ellipse fill="#ffab33" rx="1" ry="1" transform="matrix(3.5179 -25.22897 67.89073 9.4666 89.4 42)"/><ellipse rx="1" ry="1" transform="matrix(75.65922 -19.77193 7.26526 27.80122 210.9 19.6)"/><ellipse rx="1" ry="1" transform="matrix(14.68717 -45.6587 130.23568 41.89329 32.8 148.5)"/><ellipse fill="#cb490f" rx="1" ry="1" transform="matrix(9.86252 -18.01426 41.4138 22.6734 146.2 115.7)"/><ellipse rx="1" ry="1" transform="rotate(138.2 98.3 104.1) scale(32.46037 72.03013)"/><path fill="#fd9531" d="M116-16L55 52l76 13z"/><ellipse fill="#ab450d" cx="61" cy="93" rx="23" ry="23"/><ellipse fill="#a15602" cx="40" cy="31" rx="32" ry="32"/></g></svg>