<svg xmlns="http://www.w3.org/2000/svg" viewBox="0 0 5472 3648"><filter id="b"><feGaussianBlur stdDeviation="12" /></filter><path fill="#3d222a" d="M0 0h5472v3633H0z"/><g filter="url(#b)" transform="translate(10.7 10.7) scale(21.375)" fill-opacity=".5"><ellipse fill="#ff1623" rx="1" ry="1" transform="matrix(-108.4531 -67.62623 12.69786 -20.36373 20.4 27.6)"/><ellipse fill="#fb1938" rx="1" ry="1" transform="matrix(-24.2108 14.48987 -29.79206 -49.77891 154.7 156.6)"/><ellipse fill="#001f26" rx="1" ry="1" transform="matrix(59.94748 102.41668 -65.98612 38.6236 196 32.5)"/><ellipse fill="#cca067" rx="1" ry="1" transform="matrix(-8.05287 -14.73916 21.94046 -11.98736 111.5 82.4)"/><ellipse fill="#ea4139" rx="1" ry="1" transform="matrix(31.03844 -11.91454 7.61203 19.83 216.6 167.6)"/><ellipse fill="#f01" rx="1" ry="1" transform="matrix(-38.17598 -21.24848 8.65943 -15.55792 17.2 26)"/><ellipse fill="#002a2d" cx="51" cy="145" rx="72" ry="34"/><path fill="#fff" d="M34 101l7 11 9-17z"/></g></svg>