<svg xmlns="http://www.w3.org/2000/svg" viewBox="0 0 3264 2448"><filter id="b"><feGaussianBlur stdDeviation="12" /></filter><path fill="#353046" d="M0 0h3264v2448H0z"/><g filter="url(#b)" transform="translate(6.4 6.4) scale(12.75)" fill-opacity=".5"><ellipse fill="#5d5af6" cx="239" cy="106" rx="123" ry="43"/><ellipse fill="#2b2518" cx="54" cy="104" rx="80" ry="255"/><path fill="#b4b2ff" d="M266 127l5 46-47-45z"/><ellipse fill="#3e3b84" rx="1" ry="1" transform="matrix(10.90627 20.0035 -53.40337 29.11646 139.5 99.3)"/><ellipse fill="#2c2517" rx="1" ry="1" transform="matrix(-82.07689 -13.35243 4.59767 -28.26167 174.5 168.2)"/><ellipse fill="#2d271f" rx="1" ry="1" transform="matrix(7.33688 54.39298 -160.50841 21.65041 155.2 0)"/><ellipse fill="#5851dd" rx="1" ry="1" transform="matrix(7.42942 -17.84803 34.83427 14.5001 194 121.2)"/><path fill="#312d47" d="M225.2 105.5l45.8-3.3-2 23.9-41.8-5.6z"/></g></svg>