<svg xmlns="http://www.w3.org/2000/svg" viewBox="0 0 4896 3264"><filter id="c"><feGaussianBlur stdDeviation="55" /></filter><path fill="#434240" d="M0 0h4896v3251H0z"/><g filter='url(#c)' fill-opacity='.5'><path fill="#fff3d4" fill-opacity=".5" d="M5538.5 2742.9L4253.8 4027.6l-784.4-784.4 1284.7-1284.7z"/><path fill="#c5cac0" fill-opacity=".5" d="M2261.4 1871.7l-79.2 295.6-1441-386.1 79.3-295.6z"/><ellipse fill="#fff" fill-opacity=".5" rx="1" ry="1" transform="matrix(-183.63596 -206.10848 689.03083 -613.90407 4611.3 3241.4)"/><ellipse fill="#ebddcb" fill-opacity=".5" rx="1" ry="1" transform="matrix(320.43017 170.5749 -114.13909 214.41376 4886.4 993.4)"/><path fill="#796a64" fill-opacity=".5" d="M4389.8 1342.3l731.4 629.6-1905.3 1575.8 764.7-2194.2z"/><ellipse fill="#202022" fill-opacity=".5" rx="1" ry="1" transform="rotate(173.9 539.8 308) scale(4158.17378 879.63691)"/><ellipse fill="#1f1f20" fill-opacity=".5" rx="1" ry="1" transform="matrix(128.43072 -735.87484 2111.10382 368.4466 1086.2 2715.4)"/><path fill="#669397" fill-opacity=".5" d="M4657 1654.3l-1281.4-573.7-267.8 420.7z"/></g></svg>