<svg xmlns="http://www.w3.org/2000/svg" viewBox="0 0 5233 3489"><filter id="b"><feGaussianBlur stdDeviation="12" /></filter><path fill="#7d817b" d="M0 0h5233v3475H0z"/><g filter="url(#b)" transform="translate(10.2 10.2) scale(20.4414)" fill-opacity=".5"><ellipse fill="#fcffff" rx="1" ry="1" transform="matrix(-44.32209 -39.96388 68.24649 -75.68903 198.7 14)"/><ellipse rx="1" ry="1" transform="rotate(131 3.8 22.3) scale(185.65067 41.24922)"/><ellipse fill="#580000" rx="1" ry="1" transform="matrix(-69.33423 49.77984 -24.2591 -33.7885 231.7 133.5)"/><ellipse fill="#ecffff" rx="1" ry="1" transform="matrix(-14.02921 -23.78247 39.16734 -23.1047 65.9 99)"/><ellipse rx="1" ry="1" transform="matrix(-3.4253 53.16905 -20.96444 -1.35059 128 146.2)"/><ellipse fill="#001743" cx="9" cy="153" rx="31" ry="25"/><ellipse fill="#e7fffd" rx="1" ry="1" transform="matrix(6.09242 46.27653 -57.15177 7.52417 203.2 12)"/><path fill="#bdf0eb" d="M46 150V66l64 88z"/></g></svg>