<svg xmlns="http://www.w3.org/2000/svg" viewBox="0 0 6016 4016"><filter id="c"><feGaussianBlur stdDeviation="55" /></filter><path fill="#675e56" d="M0 0h6016v3995H0z"/><g filter='url(#c)' fill-opacity='.5'><ellipse fill="#cab7a6" fill-opacity=".5" rx="1" ry="1" transform="rotate(-105.6 2047.8 -400.4) scale(955.1282 1602.91991)"/><ellipse fill="#201915" fill-opacity=".5" rx="1" ry="1" transform="rotate(-163.6 2941.1 698.4) scale(927.09049 3814.00409)"/><path fill="#e2f4fd" fill-opacity=".5" d="M-364.3 3536.4l2312-253.2-616.2-792.7-261.6 383z"/><ellipse fill="#1b211f" fill-opacity=".5" rx="1" ry="1" transform="matrix(-221.21596 -1058.90107 799.81122 -167.08927 456.5 1947.8)"/><ellipse fill="#8d97a6" fill-opacity=".5" rx="1" ry="1" transform="rotate(-48.3 4456.3 -2564.4) scale(365.35013 1158.96863)"/><ellipse fill="#232321" fill-opacity=".5" rx="1" ry="1" transform="rotate(33.6 -4141.2 5993.5) scale(978.85934 344.03079)"/><path fill="#d5d9ed" fill-opacity=".5" d="M2598.9 4263.2l-616-431.4 188.7-269.5 616 431.4z"/><path fill="#281c0c" fill-opacity=".5" d="M3160.8 1562.8l-329-446.5-188 916.5z"/></g></svg>