<svg xmlns="http://www.w3.org/2000/svg" viewBox="0 0 5506 3671"><filter id="b"><feGaussianBlur stdDeviation="12" /></filter><path fill="#6c4a3e" d="M0 0h5506v3656H0z"/><g filter="url(#b)" transform="translate(10.8 10.8) scale(21.50781)" fill-opacity=".5"><ellipse fill="#ffe991" rx="1" ry="1" transform="matrix(27.9535 -31.78614 35.43449 31.16193 128 64.5)"/><ellipse fill="#fff5b9" rx="1" ry="1" transform="rotate(-137.3 80 11) scale(35.78001 18.35264)"/><ellipse fill="#342430" rx="1" ry="1" transform="matrix(-.4948 40.49825 -254.81095 -3.11326 176.2 142)"/><ellipse fill="#211d2f" cx="236" cy="18" rx="63" ry="63"/><path fill="#e68a51" d="M21 65l82 11 67 66z"/><ellipse fill="#e77a3d" rx="1" ry="1" transform="matrix(-48.37333 2.65307 -1.12487 -20.50965 126.7 30.2)"/><ellipse fill="#291f2e" rx="1" ry="1" transform="matrix(-29.5223 -27.33795 115.34675 -124.56315 .5 42.2)"/><ellipse fill="#db7c46" rx="1" ry="1" transform="rotate(122.4 63.5 78.6) scale(15.01685 35.73346)"/></g></svg>