<svg xmlns="http://www.w3.org/2000/svg" viewBox="0 0 2750 2200"><filter id="b"><feGaussianBlur stdDeviation="12" /></filter><path fill="#816b49" d="M0 0h2750v2191H0z"/><g filter="url(#b)" transform="translate(5.4 5.4) scale(10.74219)" fill-opacity=".5"><ellipse rx="1" ry="1" transform="matrix(-88.86686 .68478 -.45067 -58.48576 105.3 21.3)"/><ellipse fill="#e2c7a0" cx="207" cy="141" rx="132" ry="80"/><ellipse fill="#300800" rx="1" ry="1" transform="matrix(-16.46182 35.01805 -50.12454 -23.56331 13 165.5)"/><path d="M131 145l28-26H95z"/><ellipse fill="#582000" rx="1" ry="1" transform="matrix(-4.08298 55.20549 -20.98368 -1.55195 242.6 34.7)"/><ellipse fill="#efd3b1" rx="1" ry="1" transform="rotate(49.5 -73.2 111.5) scale(34.92409 16.57679)"/><path fill="#c4e8ee" d="M94.1 40.2L87.4 46 61.7 94.8l32-25z"/><ellipse fill="#adcbe0" cx="196" cy="71" rx="27" ry="27"/></g></svg>