<svg xmlns="http://www.w3.org/2000/svg" viewBox="0 0 5616 3744"><filter id="b"><feGaussianBlur stdDeviation="12" /></filter><path fill="#e9e9e8" d="M0 0h5616v3729H0z"/><g filter="url(#b)" transform="translate(11 11) scale(21.9375)" fill-opacity=".5"><ellipse fill="#707070" rx="1" ry="1" transform="matrix(19.76106 -19.0422 26.78748 27.79874 35.2 148.3)"/><ellipse fill="#303031" rx="1" ry="1" transform="rotate(-24.1 394.5 -198.2) scale(4.11265 66.29406)"/><ellipse fill="#444445" rx="1" ry="1" transform="matrix(7.06903 25.37265 -7.1956 2.00475 203 117.2)"/><ellipse fill="#fff" rx="1" ry="1" transform="rotate(10.1 -42.8 824.3) scale(171.24863 71.49105)"/><ellipse fill="#2e2e2e" rx="1" ry="1" transform="matrix(4.74825 32.45531 -6.36504 .93121 14.7 144.1)"/><ellipse fill="#fff" cx="30" cy="138" rx="9" ry="34"/><ellipse fill="#070707" cx="41" cy="149" rx="3" ry="47"/><ellipse fill="#9e9e9e" rx="1" ry="1" transform="matrix(6.6575 -.87648 7.04243 53.49254 184.1 95)"/></g></svg>