<svg xmlns="http://www.w3.org/2000/svg" viewBox="0 0 4330 2436"><filter id="c"><feGaussianBlur stdDeviation="55" /></filter><path fill="#3e2e1a" d="M0 0h4330v2435H0z"/><g filter='url(#c)' fill-opacity='.5'><ellipse fill="#9b7a4a" fill-opacity=".5" rx="1" ry="1" transform="matrix(976.33745 -173.91219 247.74323 1390.82254 3374.7 1464)"/><ellipse fill-opacity=".5" rx="1" ry="1" transform="matrix(1170.66651 1014.24448 -1124.0372 1297.39203 540 1099.5)"/><path fill="#dbad6f" fill-opacity=".5" d="M3475.8 8.5H3848v828.7h-372z"/><path fill-opacity=".5" d="M4379.8 2561l-126.3 48.5-666.8-1737L3713 824z"/><ellipse fill="#f1dbae" fill-opacity=".5" rx="1" ry="1" transform="rotate(-176.5 1322.2 446.4) scale(471.5949 93.42452)"/><ellipse fill-opacity=".5" rx="1" ry="1" transform="rotate(22.1 233.2 1516.2) scale(671.35065 4148.22021)"/><ellipse fill-opacity=".5" rx="1" ry="1" transform="matrix(-39.54567 611.52684 -371.86165 -24.04721 4321 348.6)"/><path fill="#d8b579" fill-opacity=".5" d="M4065.6 1228.4l386.1-47.4 125.8 1024.1-386.1 47.4z"/></g></svg>