<svg xmlns="http://www.w3.org/2000/svg" viewBox="0 0 4348 2888"><filter id="b"><feGaussianBlur stdDeviation="12" /></filter><path fill="#4f4b3b" d="M0 0h4348v2887H0z"/><g filter="url(#b)" transform="translate(8.5 8.5) scale(16.98438)" fill-opacity=".5"><ellipse fill="#ffffbf" cx="97" cy="47" rx="77" ry="25"/><ellipse fill="#fbf7be" rx="1" ry="1" transform="matrix(21.54395 20.78813 -47.99753 49.74263 242.1 17)"/><ellipse fill="#000008" rx="1" ry="1" transform="matrix(-6.68817 -59.62641 163.22654 -18.30879 144.6 131.3)"/><ellipse fill="#fff992" rx="1" ry="1" transform="matrix(12.39798 -3.06819 12.22189 49.38637 153 22.7)"/><ellipse fill="#f5b143" rx="1" ry="1" transform="matrix(7.37055 -80.9887 12.27283 1.11692 36.6 41.5)"/><ellipse fill="#070000" rx="1" ry="1" transform="matrix(11.46695 -18.54358 9.77664 6.04566 129.3 29.2)"/><path fill="#fff" d="M89 24h24v35H89z"/><ellipse fill="#09080a" rx="1" ry="1" transform="rotate(7.5 -382.4 103.4) scale(12.67823 90.34972)"/></g></svg>