<svg xmlns="http://www.w3.org/2000/svg" viewBox="0 0 4608 3072"><filter id="c"><feGaussianBlur stdDeviation="55" /></filter><path fill="#596065" d="M0 0h4608v3060H0z"/><g filter='url(#c)' fill-opacity='.5'><ellipse fill="#d1e3f4" fill-opacity=".5" rx="1" ry="1" transform="matrix(.8917 431.09213 -1641.9515 3.39634 3376.3 2692.1)"/><ellipse fill="#c5d9eb" fill-opacity=".5" rx="1" ry="1" transform="matrix(824.46976 328.09637 -119.05788 299.17924 3410 762.3)"/><ellipse fill="#343636" fill-opacity=".5" rx="1" ry="1" transform="rotate(141.8 495.6 678.2) scale(1380.94965 1640.03614)"/><path fill="#c1d5ea" fill-opacity=".5" d="M1701 63h378v774h-378z"/><path fill="#fff" fill-opacity=".5" d="M2021.5 1893.6L1357 1940l-12.6-179.6L2009 1714z"/><ellipse fill="#fff" fill-opacity=".5" rx="1" ry="1" transform="rotate(95.7 -826.8 924.2) scale(375.85841 227.25556)"/><ellipse fill="#1b1e1d" fill-opacity=".5" rx="1" ry="1" transform="matrix(-1178.11373 139.11339 -58.2064 -492.93424 4106.9 9)"/><ellipse fill="#222425" fill-opacity=".5" rx="1" ry="1" transform="rotate(-96.4 2604.6 -496) scale(227.65496 1840.16451)"/></g></svg>