<svg xmlns="http://www.w3.org/2000/svg" viewBox="0 0 4608 2661"><filter id="b"><feGaussianBlur stdDeviation="12" /></filter><path fill="#211f1f" d="M0 0h4608v2646H0z"/><g filter="url(#b)" transform="matrix(18 0 0 18 9 9)" fill-opacity=".5"><path fill="#fffee9" d="M35 145l40-64 123 45z"/><ellipse cx="63" cy="29" rx="83" ry="83"/><ellipse fill="#fffff2" rx="1" ry="1" transform="matrix(-.07007 9.2065 -48.84739 -.37175 93.2 121.9)"/><ellipse rx="1" ry="1" transform="matrix(239.34325 45.20613 -9.52296 50.41917 173 32.5)"/><path fill="#cad1c9" d="M111.4 72.9l114.4 24.3-1.2 5.9-114.4-24.3z"/><path fill="#e6f4f6" d="M65 88.6l8.2-11.8 19.7 10 24.4 21.4z"/><ellipse rx="1" ry="1" transform="matrix(-56.16736 16.72593 -4.51272 -15.15418 17.5 116)"/><path fill="#705235" d="M58 132h87v13H58z"/></g></svg>