<svg xmlns="http://www.w3.org/2000/svg" viewBox="0 0 4059 3264"><filter id="b"><feGaussianBlur stdDeviation="12" /></filter><path fill="#55584f" d="M0 0h4059v3250H0z"/><g filter="url(#b)" transform="translate(8 8) scale(15.85547)" fill-opacity=".5"><path fill="#d4aca1" d="M256 23L137 75l134 118z"/><ellipse fill="#11281f" rx="1" ry="1" transform="matrix(50.94752 115.91304 -59.03188 25.94641 67.4 29.5)"/><ellipse fill="#adadb1" rx="1" ry="1" transform="matrix(63.07075 -11.87512 4.61123 24.49102 80 178.5)"/><ellipse fill="#000c00" rx="1" ry="1" transform="rotate(-101.2 176.8 20.1) scale(24.33494 43.61715)"/><ellipse fill="#00221b" rx="1" ry="1" transform="matrix(12.12849 19.96127 -43.88187 26.66267 19.4 141)"/><ellipse fill="#d2dcd3" cx="177" cy="135" rx="26" ry="7"/><ellipse fill="#001e13" rx="1" ry="1" transform="rotate(-121.9 22 10.7) scale(27.35949 45.03494)"/><path fill="#edf5f0" d="M221 155l-44 14 30-22z"/></g></svg>