<svg xmlns="http://www.w3.org/2000/svg" viewBox="0 0 3500 2333"><filter id="b"><feGaussianBlur stdDeviation="12" /></filter><path fill="#654258" d="M0 0h3500v2324H0z"/><g filter="url(#b)" transform="translate(6.8 6.8) scale(13.67188)" fill-opacity=".5"><ellipse fill="#cbddec" rx="1" ry="1" transform="matrix(6.32274 15.115 -25.92845 10.8461 188 69)"/><ellipse fill="#00181c" rx="1" ry="1" transform="matrix(-.44531 -57.21575 82.82641 -.64464 126.3 15.4)"/><ellipse fill="#fc2543" rx="1" ry="1" transform="matrix(9.11636 53.02726 -18.1607 3.12216 230.6 72.2)"/><ellipse fill="#001e1b" rx="1" ry="1" transform="rotate(142.4 7 66.6) scale(41.60633 30.00732)"/><path fill="#c26a84" d="M192.9 143.5L116.5 220l-59.4-59.4L133.5 84z"/><ellipse fill="#c171b8" cy="58" rx="34" ry="61"/><path fill="#d6618c" d="M178 139h54v28h-54z"/><ellipse fill="#dc73be" rx="1" ry="1" transform="matrix(10.80888 48.35617 -11.82703 2.64365 3 113.7)"/></g></svg>