<svg xmlns="http://www.w3.org/2000/svg" viewBox="0 0 5184 3456"><filter id="b"><feGaussianBlur stdDeviation="12" /></filter><path fill="#785c4f" d="M0 0h5184v3442H0z"/><g filter="url(#b)" transform="translate(10.1 10.1) scale(20.25)" fill-opacity=".5"><ellipse fill="#ffffed" rx="1" ry="1" transform="matrix(6.53856 83.27424 -33.40443 2.62286 151.8 53.4)"/><ellipse fill="#fff" rx="1" ry="1" transform="rotate(-148.4 20.1 25.7) scale(31.04758 48.53249)"/><ellipse cx="41" cy="160" rx="152" ry="45"/><ellipse fill="#0f0000" rx="1" ry="1" transform="matrix(40.07153 33.624 -50.43605 60.10734 241 93.2)"/><ellipse fill="#200" rx="1" ry="1" transform="rotate(104.2 14.2 68.4) scale(61.26449 28.32881)"/><ellipse fill="#0ff" rx="1" ry="1" transform="matrix(-8.48444 30.09279 -25.80215 -7.27472 237 0)"/><ellipse fill="#ffffdc" rx="1" ry="1" transform="matrix(68.91627 29.74409 -7.15425 16.5762 148.5 17.7)"/><path fill="#ffffea" d="M16.9 14.6l35.6 15.9L19 105.4l-35.6-15.9z"/></g></svg>