<svg xmlns="http://www.w3.org/2000/svg" viewBox="0 0 3088 2056"><filter id="b"><feGaussianBlur stdDeviation="12" /></filter><path fill="#8a6d59" d="M0 0h3088v2050H0z"/><g filter="url(#b)" transform="translate(6 6) scale(12.0625)" fill-opacity=".5"><ellipse fill="#ffffe5" rx="1" ry="1" transform="rotate(45.8 -136.4 109.4) scale(175.64584 43.24213)"/><ellipse fill="#2c2d30" rx="1" ry="1" transform="matrix(-73.18202 -11.78428 34.34652 -213.29673 255 94.9)"/><ellipse fill="#241e21" rx="1" ry="1" transform="rotate(122.9 32.4 104) scale(21.58539 48.45266)"/><ellipse fill="#211d1f" rx="1" ry="1" transform="matrix(17.91587 -4.6839 7.61888 29.14213 28.7 30.7)"/><path fill="#0b0000" d="M7 143l8 11 29-14z"/><ellipse fill="#fff6e0" rx="1" ry="1" transform="matrix(-12.07183 -35.52735 23.50271 -7.98598 68.6 161.7)"/><ellipse fill="#dd7a53" rx="1" ry="1" transform="matrix(-15.87255 14.31616 -37.95235 -42.07836 84 33.5)"/><ellipse fill="#ad5f32" cx="158" cy="56" rx="30" ry="67"/></g></svg>