<svg xmlns="http://www.w3.org/2000/svg" viewBox="0 0 4735 3157"><filter id="b"><feGaussianBlur stdDeviation="12" /></filter><path fill="#99898a" d="M0 0h4735v3144H0z"/><g filter="url(#b)" transform="translate(9.2 9.2) scale(18.4961)" fill-opacity=".5"><ellipse fill="#f9f6fd" cx="119" cy="18" rx="49" ry="90"/><ellipse fill="#6d020c" cx="197" cy="34" rx="32" ry="58"/><ellipse fill="#202e2d" cx="27" cy="169" rx="142" ry="31"/><ellipse fill="#ff688a" rx="1" ry="1" transform="matrix(9.16437 -52.50947 13.2594 2.31413 220 52.8)"/><ellipse rx="1" ry="1" transform="matrix(-5.29586 -.09772 1.62647 -88.14255 56.4 7.1)"/><path fill="#202b2a" d="M190.7 131.2l93 1.6-.4 24-93-1.6z"/><ellipse fill="#e6e0e4" rx="1" ry="1" transform="matrix(17.53817 31.57731 -13.26785 7.36902 166.5 113.2)"/><ellipse fill="#0c3e29" rx="1" ry="1" transform="matrix(4.65146 -75.95727 14.53537 .89012 183 15.3)"/></g></svg>